<svg xmlns="http://www.w3.org/2000/svg" width="34.5" height="38.62" viewBox="0 0 34.5 38.62">
  <defs>
    <style>
      .cls-1 {
        fill: #fefefe;
        fill-rule: evenodd;
      }
    </style>
  </defs>
  <path id="Bell_Icon" data-name="Bell Icon" class="cls-1" d="M448.966,1175.27c-1.678,8.79-5.61,13-3,18.23a2.459,2.459,0,0,1,.534,2.47c-0.389.79-1.369,1.12-2.7,1.12-3.926,0-10.923-2.82-14.989-4.79a0.723,0.723,0,1,1,.635-1.3c9.35,4.53,15.309,5.24,15.751,4.33s-3.8-5.13-13.149-9.66a63.7,63.7,0,0,0-8.923-3.58,0.716,0.716,0,0,1-.482-0.9,0.727,0.727,0,0,1,.908-0.48,65.172,65.172,0,0,1,9.132,3.66,58.763,58.763,0,0,1,11.073,6.82c-0.472-2.74.47-5.29,1.572-8.46a52.377,52.377,0,0,0,2.214-7.73c1.656-8.69-3.648-11.09-3.875-11.18l-0.059-.03-0.069-.04a9.5,9.5,0,0,0-3.963-.85c-3.072,0-5.872,1.44-8.324,4.29a62.41,62.41,0,0,0-4.6,6.22c-2.253,3.36-4.126,6.14-7.425,7.24a0.725,0.725,0,0,1-.723.42c-1.631-.16-2.148.14-2.21,0.27-0.094.19,0.164,1.18,2.5,3.13a0.723,0.723,0,0,1,.09,1.02,0.733,0.733,0,0,1-.558.26,0.7,0.7,0,0,1-.467-0.17c-2.513-2.1-3.454-3.69-2.876-4.88,0.353-.72,1.179-1.09,2.491-1.12,5.538-.88,6.828-6.55,12.669-13.34,3.294-3.82,6.758-4.79,9.427-4.79a11.639,11.639,0,0,1,1.627.12,3.31,3.31,0,0,1,5.1-2.62,3.109,3.109,0,0,1,1.644,2.43,3.54,3.54,0,0,1-1.244,2.98C448.362,1166.18,450.061,1169.53,448.966,1175.27Zm-3.323-15.03a2.118,2.118,0,0,0-2.172-.06,1.975,1.975,0,0,0-.819,1.7,8.35,8.35,0,0,1,1.577.6,6.54,6.54,0,0,1,1.408.88,2.132,2.132,0,0,0,.864-1.83A1.653,1.653,0,0,0,445.643,1160.24Zm-23.065,25.48a4.338,4.338,0,0,1,2,.49l1.089-1.39a0.726,0.726,0,1,1,1.147.89l-1.087,1.39a4.24,4.24,0,0,1,1.132,2.88A4.282,4.282,0,1,1,422.578,1185.72Zm0,7.08a2.82,2.82,0,1,0-2.827-2.82A2.831,2.831,0,0,0,422.578,1192.8Z" transform="translate(-414.813 -1158.47)"/>
</svg>
