<svg xmlns="http://www.w3.org/2000/svg" width="35" height="27.44" viewBox="0 0 35 27.44">
  <defs>
    <style>
      .cls-1 {
        fill: #fefefe;
        fill-rule: evenodd;
      }
    </style>
  </defs>
  <path id="Envelop_Icon" data-name="Envelop Icon" class="cls-1" d="M713.19,1191.5H684.676a3.261,3.261,0,0,1-3.241-3.27v-20.91a3.261,3.261,0,0,1,3.241-3.27H713.19a3.261,3.261,0,0,1,3.241,3.27v20.91A3.261,3.261,0,0,1,713.19,1191.5Zm1.945-24.18a1.956,1.956,0,0,0-1.945-1.96H684.676a1.956,1.956,0,0,0-1.945,1.96v20.91a1.956,1.956,0,0,0,1.945,1.96H713.19a1.956,1.956,0,0,0,1.945-1.96v-20.91Zm-13.817,11.2a3.737,3.737,0,0,1-4.77,0l-12.3-10.71a0.651,0.651,0,0,1,.847-0.99l12.3,10.71a2.434,2.434,0,0,0,3.076,0l12.3-10.71a0.651,0.651,0,0,1,.847.99Z" transform="translate(-681.438 -1164.06)"/>
</svg>
