<svg xmlns="http://www.w3.org/2000/svg" width="34.656" height="29.47" viewBox="0 0 34.656 29.47">
  <defs>
    <style>
      .cls-1 {
        fill: #faefe9;
        fill-rule: evenodd;
      }
    </style>
  </defs>
  <path id="google" class="cls-1" d="M760.168,3896.96v5.23H758v-5.23h-5.411v-2.14H758v-5.23h2.165v5.23h5.411v2.14h-5.411Zm-14.967-5.29a5.476,5.476,0,0,1,3.046,4.99,5.8,5.8,0,0,1-2.681,4.51c-1.473,1.12-1.753,1.59-1.753,2.54,0,0.81,1.579,2.19,2.4,2.76,2.413,1.66,3.126,3.2,3.126,5.77,0,3.21-3.126,6.8-8.908,6.8-5.073,0-9.488-2.41-9.488-5.61,0-3.26,4.04-6.41,9.112-6.41,0.552,0,1.059-.02,1.583-0.02a3.439,3.439,0,0,1-1.243-2.47,3.648,3.648,0,0,1,.463-1.68c-0.276.02-.557-0.02-0.847-0.02a6.6,6.6,0,0,1-6.957-6.56c0-3.49,3.854-6.71,7.95-6.71h9.133l-2.044,2.11h-2.9Zm-4.176,16.19c-3.506-.04-6.647,2.07-6.647,4.62,0,2.59,2.532,4.48,6.038,4.48,4.928,0,6.646-1.76,6.646-4.35a3.953,3.953,0,0,0-.112-0.92c-0.385-1.47-1.75-2.19-3.653-3.48A7.482,7.482,0,0,0,741.025,3907.86Zm3.939-11.16c-0.407-3-2.745-5.41-5.1-5.48s-3.93,2.23-3.523,5.23,2.642,5.5,5,5.57S745.369,3899.71,744.964,3896.7Z" transform="translate(-730.938 -3889.56)"/>
</svg>
