<svg xmlns="http://www.w3.org/2000/svg" width="36.844" height="29.47" viewBox="0 0 36.844 29.47">
  <defs>
    <style>
      .cls-1 {
        fill: #faefe9;
        fill-rule: evenodd;
      }
    </style>
  </defs>
  <path id="twitter" class="cls-1" d="M702.954,3889.56a7.857,7.857,0,0,1,5.975,2.34,12.293,12.293,0,0,0,3.872-1.28l0.94-.51a7.493,7.493,0,0,1-2.452,3.5,4,4,0,0,1-.83.58v0.01a14.018,14.018,0,0,0,4.278-1.14v0.02a12.078,12.078,0,0,1-2.563,2.9c-0.394.31-.787,0.62-1.18,0.92a21.071,21.071,0,0,1-.351,4.79c-1.887,8.36-6.889,14.04-14.807,16.47a23.09,23.09,0,0,1-10.694.44,28.343,28.343,0,0,1-4.444-1.44,17.319,17.319,0,0,1-2.139-1.08c-0.222-.14-0.443-0.27-0.664-0.4a12.737,12.737,0,0,0,2.415.09c0.744-.12,1.472-0.09,2.158-0.24a15.746,15.746,0,0,0,4.536-1.61,8.213,8.213,0,0,0,2.047-1.32,6.6,6.6,0,0,1-2.25-.4,7.542,7.542,0,0,1-4.794-4.77c0.741,0.08,2.875.27,3.374-.14a5.512,5.512,0,0,1-2.471-.98,7.147,7.147,0,0,1-3.558-6.38l0.774,0.36a8.048,8.048,0,0,0,1.586.44,2.373,2.373,0,0,0,1.032.09h-0.037c-0.38-.44-1-0.73-1.382-1.2a7.527,7.527,0,0,1-1.7-6.76,8.692,8.692,0,0,1,.811-1.94,0.072,0.072,0,0,0,.037.02,4.211,4.211,0,0,0,.683.78,13.448,13.448,0,0,0,2.249,2.12,22.394,22.394,0,0,0,9.238,4.41,14.87,14.87,0,0,0,3.393.43,6.838,6.838,0,0,1,.037-3.5,7.39,7.39,0,0,1,4.278-5,9.291,9.291,0,0,1,1.678-.51C702.339,3889.64,702.647,3889.6,702.954,3889.56Z" transform="translate(-677.906 -3889.56)"/>
</svg>
