<svg xmlns="http://www.w3.org/2000/svg" width="34.5" height="38.62"><path data-name="Bell Icon" d="M34.153 16.8c-1.678 8.79-5.61 13-3 18.23a2.459 2.459 0 01.534 2.47c-.389.79-1.369 1.12-2.7 1.12-3.926 0-10.923-2.82-14.989-4.79a.723.723 0 11.635-1.3c9.35 4.53 15.309 5.24 15.751 4.33s-3.8-5.13-13.149-9.66a63.7 63.7 0 00-8.923-3.58.716.716 0 01-.482-.9.727.727 0 01.908-.48 65.172 65.172 0 019.132 3.66 58.763 58.763 0 0111.073 6.82c-.472-2.74.47-5.29 1.572-8.46a52.377 52.377 0 002.214-7.73c1.656-8.69-3.648-11.09-3.875-11.18l-.059-.03-.069-.04a9.5 9.5 0 00-3.963-.85c-3.072 0-5.872 1.44-8.324 4.29a62.41 62.41 0 00-4.6 6.22c-2.253 3.36-4.126 6.14-7.425 7.24a.725.725 0 01-.723.42c-1.631-.16-2.148.14-2.21.27-.094.19.164 1.18 2.5 3.13a.723.723 0 01.09 1.02.733.733 0 01-.558.26.7.7 0 01-.467-.17C.533 25.01-.408 23.42.17 22.23c.353-.72 1.179-1.09 2.491-1.12 5.538-.88 6.828-6.55 12.669-13.34 3.294-3.82 6.758-4.79 9.427-4.79a11.639 11.639 0 011.627.12 3.31 3.31 0 015.1-2.62 3.109 3.109 0 011.644 2.43 3.54 3.54 0 01-1.244 2.98c1.665 1.82 3.364 5.17 2.269 10.91zM30.83 1.77a2.118 2.118 0 00-2.172-.06 1.975 1.975 0 00-.819 1.7 8.35 8.35 0 011.577.6 6.54 6.54 0 011.408.88 2.132 2.132 0 00.864-1.83 1.653 1.653 0 00-.858-1.29zM7.765 27.25a4.338 4.338 0 012 .49l1.089-1.39a.726.726 0 111.147.89l-1.087 1.39a4.24 4.24 0 011.132 2.88 4.282 4.282 0 11-4.281-4.26zm0 7.08a2.82 2.82 0 10-2.827-2.82 2.831 2.831 0 002.827 2.82z" fill="#fefefe" fill-rule="evenodd"/></svg>