<svg xmlns="http://www.w3.org/2000/svg" width="35" height="27.44"><path data-name="Envelop Icon" d="M31.752 27.44H3.238a3.261 3.261 0 01-3.241-3.27V3.26A3.261 3.261 0 013.238-.01h28.514a3.261 3.261 0 013.241 3.27v20.91a3.261 3.261 0 01-3.241 3.27zm1.945-24.18a1.956 1.956 0 00-1.945-1.96H3.238a1.956 1.956 0 00-1.945 1.96v20.91a1.956 1.956 0 001.945 1.96h28.514a1.956 1.956 0 001.945-1.96V3.26zM19.88 14.46a3.737 3.737 0 01-4.77 0L2.81 3.75a.651.651 0 01.847-.99l12.3 10.71a2.434 2.434 0 003.076 0l12.3-10.71a.651.651 0 01.847.99z" fill="#fefefe" fill-rule="evenodd"/></svg>