<svg xmlns="http://www.w3.org/2000/svg" width="187.152" height="194.53"><path data-name="Umbrella Icon" d="M183.552 117.15a3.6 3.6 0 01-3.6-3.6c0-.961-.04-1.9-.07-2.84-1.47-2.993-8.08-14.341-24.01-14.341-17.968 0-24.1 14.453-24.354 15.068a3.6 3.6 0 01-6.422.5c-.38-.625-9.76-15.57-31.521-15.57-21.932 0-31.426 15.414-31.521 15.57a3.508 3.508 0 01-3.374 1.736 3.6 3.6 0 01-3.054-2.252c-.247-.6-6.38-15.054-24.344-15.054-15.908 0-22.53 11.321-24.014 14.339-.028.946-.073 1.881-.073 2.842a3.6 3.6 0 11-7.2 0c0-1.027.042-2.038.074-3.055a3.459 3.459 0 01.021-.873c1.951-48.3 39.693-84.524 89.885-86.185V3.617a3.6 3.6 0 117.2 0v19.822c50.188 1.661 87.938 37.885 89.888 86.184a3.753 3.753 0 01.02.885c.03 1.012.07 2.021.07 3.044a3.6 3.6 0 01-3.601 3.598zM93.575 30.558c-37.482 0-77.042 23.32-84.939 66.863 4.885-4.333 12.168-8.258 22.646-8.258 15.574 0 24.157 8.661 28.164 14.47 5.156-5.649 16.1-14.47 34.129-14.47s28.973 8.821 34.129 14.47c4.007-5.809 12.59-14.47 28.168-14.47 10.47 0 17.76 3.925 22.64 8.258-7.9-43.539-47.454-66.859-84.937-66.859zm-43.19 127.948a3.6 3.6 0 013.6 3.6v7.2c0 11.83 9.054 18.01 18 18.01s18-6.18 18-18.01v-61.227a3.6 3.6 0 117.2 0v61.231c0 16.38-12.98 25.22-25.194 25.22s-25.194-8.84-25.194-25.22v-7.2a3.6 3.6 0 013.588-3.6z" fill="#040405" fill-rule="evenodd" opacity=".2"/></svg>