<svg xmlns="http://www.w3.org/2000/svg" width="29.469" height="33.15"><path data-name="Drawer Icon" d="M27.636 33.16H25.18a1.841 1.841 0 01-1.842-1.84c0 .04-.223-.61-2.456-.61H8.601c-2.234 0-2.458.66-2.46.67a1.822 1.822 0 01-1.838 1.78H1.847a1.839 1.839 0 01-1.842-1.84V3.08A3.069 3.069 0 013.075.01h23.333a3.069 3.069 0 013.07 3.07v28.24a1.839 1.839 0 01-1.842 1.84zm.614-30.08a1.848 1.848 0 00-1.842-1.85H3.075a1.848 1.848 0 00-1.842 1.85v9.82H28.25V3.08zm0 11.05H1.231v11.66h27.017V14.13zm0 15.35v-2.46H1.231v4.3a.61.61 0 00.614.61h2.456a.611.611 0 00.614-.61c0-.19.1-1.84 3.684-1.84H20.88c3.581 0 3.684 1.65 3.684 1.84a.611.611 0 00.614.61h2.456a.61.61 0 00.614-.61v-1.84zM10.443 18.43a.61.61 0 01.614.61v.92a.594.594 0 00.614.31h6.141a.594.594 0 00.614-.31v-.92a.614.614 0 011.228 0v.92a1.713 1.713 0 01-1.842 1.54h-6.141a1.713 1.713 0 01-1.842-1.54v-.92a.61.61 0 01.614-.61zm0-12.9a.619.619 0 01.614.62v.92a.607.607 0 00.614.3h6.141a.607.607 0 00.614-.3v-.92a.614.614 0 111.228 0v.92a1.712 1.712 0 01-1.842 1.53h-6.141a1.713 1.713 0 01-1.842-1.53v-.92a.619.619 0 01.614-.62z" fill="#fefefe" fill-rule="evenodd"/></svg>