<svg xmlns="http://www.w3.org/2000/svg" width="34.656" height="29.47"><path d="M29.23 7.4v5.23h-2.168V7.4h-5.411V5.26h5.411V.03h2.165v5.23h5.411V7.4h-5.411zM14.263 2.11a5.476 5.476 0 013.046 4.99 5.8 5.8 0 01-2.681 4.51c-1.473 1.12-1.753 1.59-1.753 2.54 0 .81 1.579 2.19 2.4 2.76 2.413 1.66 3.126 3.2 3.126 5.77 0 3.21-3.126 6.8-8.908 6.8-5.073 0-9.488-2.41-9.488-5.61 0-3.26 4.04-6.41 9.112-6.41.552 0 1.059-.02 1.583-.02a3.439 3.439 0 01-1.243-2.47 3.648 3.648 0 01.463-1.68c-.276.02-.557-.02-.847-.02a6.6 6.6 0 01-6.957-6.56C2.116 3.22 5.97 0 10.066 0h9.133l-2.044 2.11h-2.9zM10.087 18.3c-3.506-.04-6.647 2.07-6.647 4.62 0 2.59 2.532 4.48 6.038 4.48 4.928 0 6.646-1.76 6.646-4.35a3.953 3.953 0 00-.112-.92c-.385-1.47-1.75-2.19-3.653-3.48a7.482 7.482 0 00-2.272-.35zm3.939-11.16c-.407-3-2.745-5.41-5.1-5.48s-3.93 2.23-3.523 5.23 2.642 5.5 5 5.57 4.028-2.31 3.623-5.32z" fill="#faefe9" fill-rule="evenodd"/></svg>