<svg xmlns="http://www.w3.org/2000/svg" width="36.844" height="29.47"><path d="M25.048 0a7.857 7.857 0 015.975 2.34 12.293 12.293 0 003.872-1.28l.94-.51a7.493 7.493 0 01-2.452 3.5 4 4 0 01-.83.58v.01a14.018 14.018 0 004.278-1.14v.02a12.078 12.078 0 01-2.563 2.9c-.394.31-.787.62-1.18.92a21.071 21.071 0 01-.351 4.79C30.85 20.49 25.848 26.17 17.93 28.6a23.09 23.09 0 01-10.694.44 28.343 28.343 0 01-4.444-1.44 17.319 17.319 0 01-2.139-1.08c-.222-.14-.443-.27-.664-.4a12.737 12.737 0 002.415.09c.744-.12 1.472-.09 2.158-.24a15.746 15.746 0 004.536-1.61 8.213 8.213 0 002.047-1.32 6.6 6.6 0 01-2.25-.4 7.542 7.542 0 01-4.794-4.77c.741.08 2.875.27 3.374-.14a5.512 5.512 0 01-2.471-.98 7.147 7.147 0 01-3.558-6.38l.774.36a8.048 8.048 0 001.586.44 2.373 2.373 0 001.032.09h-.037c-.38-.44-1-.73-1.382-1.2a7.527 7.527 0 01-1.7-6.76 8.692 8.692 0 01.811-1.94.072.072 0 00.037.02 4.211 4.211 0 00.683.78 13.448 13.448 0 002.249 2.12 22.394 22.394 0 009.238 4.41 14.87 14.87 0 003.393.43 6.838 6.838 0 01.037-3.5 7.39 7.39 0 014.278-5 9.291 9.291 0 011.678-.51c.31-.03.618-.07.925-.11z" fill="#faefe9" fill-rule="evenodd"/></svg>